<svg xmlns="http://www.w3.org/2000/svg" viewBox="0 0 998.01 748.74"><title>hat</title><path d="M999.22,193.53c-3.89,8-10.77,12.42-18.7,15.39q-37.07,13.85-74.23,27.45Q723,303.73,539.6,371.08c-4.92,1.81-9.8,3.74-14.65,5.72-6.63,2.71-13.06,2.31-19.76-.15Q419,345,332.68,313.62c-23.63-8.62-47.28-17.18-71.78-26.09,3.37-1.55,6-2.86,8.76-4q122.91-52.62,245.83-105.21c14.33-6.14,19.73-20.51,13-34.4-5.51-11.38-17.4-15.58-29.66-10.29Q432.45,162.25,366.12,191,283,226.94,199.86,262.89a31.36,31.36,0,0,0-7.51,4.91C167,289.23,153.21,317.4,147,349.22c-3.53,18.06-4.41,36.63-6.57,55-.35,3,.7,4.83,3.08,6.78,25.07,20.52,26.06,58.56,2.41,80.83a9.26,9.26,0,0,0-2.46,6.4c1.2,30.52,3.3,61,3.82,91.54.51,29.9-2,59.63-11.72,88.3C125.06,709,106,732.57,76.47,747.22c-1.86.92-4.13,1-6.2,1.52-1.7-.73-3.37-1.52-5.1-2.17-24.12-9.05-44.56-23.87-64-40.29a9.08,9.08,0,0,1,.56-1.18q2.44-3.26,4.9-6.49C51,640.55,82.28,576.81,92.33,503.7c.49-3.52.09-5.62-3.23-7.84-32.39-21.64-29.58-72.34,5-90.17,2.73-1.41,3.46-3,3.53-5.79.28-12,.47-24.1,1.25-36.11,1.69-25.89,6.69-51,18.37-74.47,7.83-15.73,18.2-29.67,30.47-42.55-1.22-.54-2.11-1-3.05-1.34-33.53-12.2-67.12-24.22-100.54-36.72a63.85,63.85,0,0,1-17.86-10.28c-6.92-5.68-6.92-13.6,0-19.24A62.81,62.81,0,0,1,44.16,169Q211,108.22,378,47.82,443.66,24,509.28,0h3.05c8.32,3,16.64,6,24.94,9.07q180.91,66.48,361.84,133Q939.57,156.94,980,172c8.08,3,15.11,7.47,19.23,15.47Z" transform="translate(-1.21)"/><path d="M825.26,328.39v20.1q0,71.79,0,143.58c0,20.41-10.54,35.79-26.65,45.28-58.26,34.33-121.21,56.6-187.74,68.8a580.49,580.49,0,0,1-138.81,9c-83.09-4.84-161.43-26.1-234-67.66-10.53-6-16.8-14.38-20.48-25.27a8,8,0,0,1,.76-6.35c22.68-30.87,20.86-79.09-5-105.86a6.3,6.3,0,0,1-1.66-4c-.1-24.25-.08-48.51-.08-73.39,1.81.53,3.2.87,4.54,1.36q136.17,49.38,272.32,98.79,7.86,2.85,15.6,6.06c7.1,2.94,14,2.79,21.23.09q83-30.88,166-61.48,64.73-23.9,129.51-47.61C822.1,329.36,823.37,329,825.26,328.39Z" transform="translate(-1.21)"/></svg>